<svg id="Capa_1" data-name="Capa 1" xmlns="http://www.w3.org/2000/svg" xmlns:xlink="http://www.w3.org/1999/xlink" viewBox="0 0 792 612"><defs><style>.cls-1,.cls-10,.cls-15,.cls-18,.cls-23,.cls-24,.cls-26,.cls-27,.cls-28,.cls-29,.cls-31,.cls-33,.cls-41,.cls-42,.cls-44,.cls-46,.cls-8{fill:none;}.cls-2{fill:#3c9aad;opacity:0.89;}.cls-3,.cls-38{opacity:0.13;}.cls-4{fill:#f5e4e8;}.cls-5{fill:#f49c54;stroke:#f49c55;}.cls-10,.cls-15,.cls-16,.cls-18,.cls-23,.cls-24,.cls-26,.cls-27,.cls-28,.cls-29,.cls-31,.cls-32,.cls-33,.cls-41,.cls-42,.cls-44,.cls-46,.cls-5,.cls-8{stroke-miterlimit:10;}.cls-32,.cls-6{fill:#facfba;}.cls-7{fill:#f9bc92;}.cls-29,.cls-46,.cls-8{stroke:#ed695d;}.cls-27,.cls-29,.cls-44,.cls-8{stroke-width:0.75px;}.cls-9{fill:#f7b39d;opacity:0.67;}.cls-10,.cls-33,.cls-41,.cls-42,.cls-44{stroke:#2b1a40;}.cls-10,.cls-26,.cls-29{stroke-linecap:round;}.cls-10,.cls-18,.cls-24,.cls-26,.cls-41{stroke-width:0.5px;}.cls-11,.cls-19,.cls-20,.cls-25{fill:#f29064;}.cls-12,.cls-47{fill:#f6a968;}.cls-13{fill:#f08464;}.cls-14,.cls-16,.cls-17{fill:#e94c94;}.cls-14{opacity:0.47;}.cls-15,.cls-16,.cls-24{stroke:#e94c94;}.cls-15,.cls-23,.cls-33{stroke-width:0.25px;}.cls-16{opacity:0.26;}.cls-17{opacity:0.32;}.cls-18,.cls-23,.cls-26,.cls-27,.cls-28{stroke:#2c1b41;}.cls-19{opacity:0.45;}.cls-20{opacity:0.9;}.cls-21{fill:#2c1b41;}.cls-22{fill:#ec677c;}.cls-25{opacity:0.68;}.cls-28{stroke-width:0.55px;}.cls-30,.cls-40{fill:#2b1a40;}.cls-31,.cls-32{stroke:#facfba;}.cls-32{stroke-width:0.01px;}.cls-34{fill:#f8f5c1;}.cls-35,.cls-36,.cls-38,.cls-39{fill:#ed695d;}.cls-35{opacity:0.24;}.cls-37{fill:#efb49f;}.cls-39{opacity:0.27;}.cls-40{opacity:0.14;}.cls-43{fill:#fefafd;opacity:0.15;}.cls-45{clip-path:url(#clip-path);}.cls-47{opacity:0.25;}</style><clipPath id="clip-path"><ellipse class="cls-1" cx="326.7" cy="162.3" rx="128.42" ry="109.01"/></clipPath></defs><rect class="cls-2" x="100.95" y="120.33" width="533.96" height="400.72" rx="48.64"/><g class="cls-3"><circle class="cls-4" cx="141.62" cy="163.66" r="14.34"/><circle class="cls-4" cx="137.22" cy="231.48" r="16.36"/><circle class="cls-4" cx="183.89" cy="199.57" r="8.81"/><circle class="cls-4" cx="215.24" cy="162.35" r="15.65"/><circle class="cls-4" cx="158.15" cy="292.75" r="12.54"/><circle class="cls-4" cx="127.33" cy="345.94" r="6.47"/><circle class="cls-4" cx="187.19" cy="371.6" r="17.77"/><circle class="cls-4" cx="149.68" cy="412.98" r="12.46"/><circle class="cls-4" cx="154.81" cy="479.96" r="17.59"/><circle class="cls-4" cx="213.95" cy="310.94" r="8.99"/><circle class="cls-4" cx="215.45" cy="248.99" r="14.57"/><circle class="cls-4" cx="249.48" cy="207.12" r="10.34"/><circle class="cls-4" cx="284.85" cy="164.53" r="17.83"/><circle class="cls-4" cx="298.71" cy="254.07" r="9.63"/><ellipse class="cls-4" cx="264.39" cy="297.73" rx="14.86" ry="10.39"/><circle class="cls-4" cx="264.84" cy="372.15" r="15.31"/><circle class="cls-4" cx="220.7" cy="428.03" r="13.75"/><circle class="cls-4" cx="225.01" cy="487.99" r="9.56"/><circle class="cls-4" cx="287.37" cy="477.66" r="15.3"/><circle class="cls-4" cx="288.54" cy="424.19" r="9.15"/><circle class="cls-4" cx="316.36" cy="367.52" r="13.69"/><circle class="cls-4" cx="319.2" cy="313.63" r="10.86"/><circle class="cls-4" cx="318.15" cy="212.42" r="10.95"/><circle class="cls-4" cx="359.16" cy="176.81" r="17.82"/><circle class="cls-4" cx="361.81" cy="274.77" r="15.69"/><circle class="cls-4" cx="367.83" cy="227.98" r="8.68"/><circle class="cls-4" cx="335.38" cy="138.02" r="8.69"/><circle class="cls-4" cx="255.69" cy="135.81" r="6.48"/><circle class="cls-4" cx="176.87" cy="136.78" r="7.45"/><circle class="cls-4" cx="356.67" cy="473.65" r="15.34"/><circle class="cls-4" cx="347.84" cy="432.09" r="12.45"/><circle class="cls-4" cx="370.62" cy="384.42" r="15.17"/><ellipse class="cls-4" cx="408.15" cy="493.41" rx="12.15" ry="7.61"/><circle class="cls-4" cx="413.08" cy="437.81" r="17.08"/><circle class="cls-4" cx="467.62" cy="494.65" r="12.94"/><circle class="cls-4" cx="430.54" cy="381.83" r="10.23"/><circle class="cls-4" cx="384.92" cy="333.58" r="16.77"/><circle class="cls-4" cx="409.78" cy="284.5" r="8.09"/><circle class="cls-4" cx="437.87" cy="332.59" r="12.66"/><ellipse class="cls-4" cx="471.22" cy="425.43" rx="14.11" ry="19.11"/><circle class="cls-4" cx="412.8" cy="226.24" r="11.11"/><circle class="cls-4" cx="411.83" cy="178.13" r="15.83"/><circle class="cls-4" cx="386.92" cy="139.56" r="7.14"/><circle class="cls-4" cx="463.96" cy="154.61" r="17.42"/><circle class="cls-4" cx="459.07" cy="217.67" r="8.55"/><circle class="cls-4" cx="506.18" cy="206.36" r="18.08"/><circle class="cls-4" cx="428.44" cy="140.96" r="8.54"/><circle class="cls-4" cx="454.8" cy="194.02" r="4.27"/><circle class="cls-4" cx="464.35" cy="278.45" r="17.81"/><circle class="cls-4" cx="493.56" cy="248.35" r="7.55"/><circle class="cls-4" cx="485.44" cy="331.88" r="15.07"/><ellipse class="cls-4" cx="478.86" cy="379.31" rx="14.91" ry="11.45"/><circle class="cls-4" cx="451.69" cy="464.27" r="9.38"/><circle class="cls-4" cx="523.05" cy="489.59" r="18.59"/><circle class="cls-4" cx="508.46" cy="445.53" r="7.35"/><circle class="cls-4" cx="485.8" cy="459.82" r="6.94"/><ellipse class="cls-4" cx="526.83" cy="406.61" rx="16.99" ry="13.03"/><circle class="cls-4" cx="553.01" cy="449.2" r="9.19"/><ellipse class="cls-4" cx="576.84" cy="492.4" rx="11.25" ry="14.74"/><circle class="cls-4" cx="538.4" cy="352.05" r="17.38"/><circle class="cls-4" cx="513.4" cy="299.97" r="7.22"/><circle class="cls-4" cx="532.3" cy="272.29" r="14.49"/><circle class="cls-4" cx="555.9" cy="315.2" r="13.75"/><circle class="cls-4" cx="515.66" cy="144.37" r="15.04"/><circle class="cls-4" cx="556.43" cy="185.51" r="14.28"/><circle class="cls-4" cx="562.48" cy="226.26" r="8.4"/><circle class="cls-4" cx="583.38" cy="279.55" r="13.2"/><circle class="cls-4" cx="598.06" cy="341.35" r="9.97"/><ellipse class="cls-4" cx="580.35" cy="396.11" rx="14.76" ry="20.89"/><circle class="cls-4" cx="602.43" cy="454.51" r="5.31"/><circle class="cls-4" cx="620.66" cy="423.6" r="6.6"/><circle class="cls-4" cx="606.85" cy="201.52" r="13.24"/><circle class="cls-4" cx="565.87" cy="140.69" r="8.27"/><circle class="cls-4" cx="611.79" cy="161.39" r="14.68"/><circle class="cls-4" cx="505.4" cy="177.31" r="6.09"/><circle class="cls-4" cx="606.43" cy="244.98" r="12.81"/></g><ellipse class="cls-5" cx="326.63" cy="161.51" rx="128.42" ry="109.93"/><ellipse class="cls-5" cx="207.75" cy="402.32" rx="133.58" ry="118.39"/><path class="cls-6" d="M623.7,232.48a22.1,22.1,0,0,1,7.33,1.74c7.39,3.7,7.55,13.41,6.87,21.25-6.65,77,3.69,154.54.76,231.79-.13,3.44-.38,7.13-2.61,9.86-3.39,4.13-9.92,4.44-15.36,3.4-21.84-4.15-37.53-23.62-42.3-44.07s-.61-41.74,4.7-62.07c2.1-8.05,4.4-16.23,3.8-24.5-.52-7.22-3.24-14.14-6.35-20.76-11.48-24.4-28.58-46-42.19-69.45-4.54-7.78-8.74-15.93-10.22-24.69-1.13-6.62-1.15-18.41,4.6-23.53,5.55-4.93,18.1-2.79,25-2.79A569.48,569.48,0,0,1,623.7,232.48Z"/><path class="cls-7" d="M596.69,485c7.77,2.1,16,1.4,23.93,2.81s16.27,5.92,18.19,13.73c2,8.11-4,16.46-11.64,20s-16.28,3.31-24.63,3.06c-15.74-.46-31.7-.95-46.8-5.44-5.28-1.57-10.84-4-13.48-8.8-2.41-4.4-1.78-10,.73-14.38s6.66-7.53,11.1-9.85c6.53-3.43,7.94-11.42,15.2-11.57C578.54,474.29,587.94,482.59,596.69,485Z"/><path class="cls-8" d="M614.06,358a21.11,21.11,0,0,1,5.64,6.65,56.08,56.08,0,0,1,3.09-8.5"/><path class="cls-6" d="M541.63,525.53A153.81,153.81,0,0,0,464.7,468.4c-3.31-1.1-6.76-2.09-10.22-1.68a19.73,19.73,0,0,0-6.87,2.38,42.15,42.15,0,0,0-20.38,24.72c-2.2,7.25-3.41,18.87.67,25.79,3.24,5.49,9.24,4.41,14.89,4.57,20.88.6,41.73,1.27,62.61,1.42Q523.52,525.72,541.63,525.53Z"/><path class="cls-9" d="M447.42,503.14c4.71-5.49,12.14-8,19.36-8.54,13.89-1,29,5.59,34.69,18.3,2.08,4.61,3.49,10.46,8.27,12.13a14.13,14.13,0,0,0,5.07.46l24.17-.77c-16.65-25.67-38.34-50.09-67.42-59.6-6.12-2-12.61-3.31-19-2.53C440.88,464,430.8,472.48,425.48,483s-6.37,22.71-5.08,34.39c.2,1.89.53,3.9,1.84,5.27s3.34,1.79,5.24,2c5.47.74,15.75,3.09,16.91-3.82.47-2.81-1.39-6.1-.88-9.25A17.36,17.36,0,0,1,447.42,503.14Z"/><path class="cls-10" d="M505.4,525.6a92.25,92.25,0,0,0,4.25-8.2,31.15,31.15,0,0,0,3.11-10.26"/><path class="cls-11" d="M632.6,448.52c1.22,5.51,2.5,11.12,2,16.74a26.72,26.72,0,0,1-8.19,16.79,14.68,14.68,0,0,1-6.27,3.77c-5.39,1.38-11-1.92-14.59-6.15-4.88-5.71-7.38-13.15-8.17-20.61s0-15,1.07-22.43a297.14,297.14,0,0,1,12.17-51.36,6.13,6.13,0,0,1,1.78-3.09c8.88-6.7,11.72,23.38,12.28,26.49Q628.2,428.68,632.6,448.52Z"/><path class="cls-12" d="M564.93,265.1c16.12,1.88,32.94,5.33,45.19,15.79,10.23,8.75,16.14,21.61,18.5,34.72s1.46,26.57-.09,39.79-3.72,26.43-3.9,39.74a3.21,3.21,0,0,1-.7,2.43,3,3,0,0,1-1.26.61c-10.09,3-20.8-1.19-30.45-5.35-7.67-3.31-15.73-7-20.33-13.88-7.2-10.74-3.63-25.65-9.7-37-2.61-4.89-6.8-8.75-10.32-13.05-7.67-9.36-12.15-20.78-16.52-32-2-5.19-4.07-10.49-4.36-16.05s1.57-13.59,7.43-15.78C546,262.19,557.1,264.18,564.93,265.1Z"/><path class="cls-12" d="M535.58,258.35c-20.59-5.26-42.48,6.73-55.22,23.74s-18.28,38.19-23.54,58.78Q446.91,379.69,437,418.5c18.91.48,35.61,1.48,54.51,2,15.19.38,30.65.81,45,5.71,7.52,2.56,15.4,6.36,23,4.13,8.47-2.48,13.09-11.4,16.4-19.57,11.29-27.83,18.55-58.31,13.38-87.89S564.68,265.79,535.58,258.35Z"/><path class="cls-13" d="M513.55,288a13.26,13.26,0,0,0,7.44,3.38,37.67,37.67,0,0,0,8.29,0,39.4,39.4,0,0,0,6.66-.93,33.1,33.1,0,0,0,7.12-2.91,30,30,0,0,0,7.61-5.21,13,13,0,0,0,4-8.14,21.25,21.25,0,0,1-10.13-8.37,10.86,10.86,0,0,1-2-6.47c.22-3,2.24-5.63,2.23-8.61q-3.93,2.85-8,5.5a59.67,59.67,0,0,1-8.29,4.66c-6.06,2.67-12.8,3.62-18.68,6.65a1.78,1.78,0,0,0-1.16,2.23C509.11,275.23,508.87,284.08,513.55,288Z"/><path class="cls-14" d="M509.72,278.73a2.7,2.7,0,0,0,1,1.74,2.51,2.51,0,0,0,1.51.26c5.7-.25,10.79-3.57,15.2-7.19a89.17,89.17,0,0,0,13.17-13.39,20.63,20.63,0,0,0,2.61-3.95,15.71,15.71,0,0,0,1.31-5.66c-4.58,5.31-10.38,9.43-16.45,13a113.09,113.09,0,0,1-17.21,8.11,3.9,3.9,0,0,0-1.72,1c-.69.8-.14,1.59,0,2.43C509.35,276.26,509.42,277.5,509.72,278.73Z"/><path class="cls-15" d="M561.07,267.68a4.56,4.56,0,1,0,9.11.48"/><path class="cls-14" d="M536.78,270.59c1.55,1.89,4.34,3.08,6.46,1.87a4.76,4.76,0,0,0-1.87,4.66,6.13,6.13,0,0,0,3,4.15,7.24,7.24,0,0,0,6.38.42c.67-.28,1.39-.82,1.33-1.55s-.72-1.08-1.27-1.46a8.22,8.22,0,0,1-2.78-3.24,44.39,44.39,0,0,1-1.5-4.57,9.33,9.33,0,0,0-4.1-5.19,6,6,0,0,0-5.78-.05C534.82,266.79,535.58,269.12,536.78,270.59Z"/><circle class="cls-16" cx="548.11" cy="247.97" r="0.59"/><path class="cls-17" d="M561.07,274c.9,0,1.79.12,2.68.22.27,0,.6.1.71.35a4.12,4.12,0,0,1-1.6.48,2.9,2.9,0,0,1-.51,0,5,5,0,0,1-3.08-1A5.7,5.7,0,0,1,561.07,274Z"/><path class="cls-12" d="M553.41,278.4a56.92,56.92,0,0,1-6.5,6.4,28,28,0,0,1-3.25,2.24c-6.21,3.62-13.69,4.51-20.86,4a20,20,0,0,1-3.94-.58,12.32,12.32,0,0,1-8.52-8.69c-.14-.54-1.23-.67-1.68-.35a3,3,0,0,0-.9,1.37,4.18,4.18,0,0,0-.45,2.62,3.87,3.87,0,0,0,.77,1.31,36.16,36.16,0,0,0,4.76,4.58c2,1.7,4.14,3.41,6.69,4.11a19.35,19.35,0,0,0,4.23.52l5.9.27a30.63,30.63,0,0,0,4,0c3.78-.32,7.28-2,10.66-3.76a34.08,34.08,0,0,0,6.17-3.7,11.82,11.82,0,0,0,4.11-5.79A4.67,4.67,0,0,0,553.41,278.4Z"/><path class="cls-18" d="M507.31,285.43c9.53,15.06,32.27,15.3,46.77-1.19"/><path class="cls-19" d="M557.91,299.49a9.7,9.7,0,0,0,15.56,5.59c1.06-.84,2-1.94,3.26-2.38a11.89,11.89,0,0,1,3.33-.3c6-.34,10.19-6.08,13-11.46s5.56-11.47,11.15-13.78c-6.29-6.25-15.45-8.39-24.11-10.27a13.73,13.73,0,0,0-4.76-.46c-3.34.47-5.79,3.25-8,5.74a104.23,104.23,0,0,1-9.91,9.58c-3.39,2.87-8.69,5.26-11.44,8.66C540.4,297.23,551.82,305,557.91,299.49Z"/><path class="cls-20" d="M478.1,284.71a1.09,1.09,0,0,0-.36.82c.05.32.36.52.65.67a21.69,21.69,0,0,0,7.8,2.5,11.07,11.07,0,0,1,3.09.6c1.5.64,2.51,2.06,3.79,3.08a8.73,8.73,0,0,0,8,1.49,2.53,2.53,0,0,0,1.26-.77,2.89,2.89,0,0,0,.42-1.16l.85-4.21a13.82,13.82,0,0,0,.39-5.07c-.73-4.26-5.06-6.77-8.94-8.69a15.3,15.3,0,0,0-6.27-2c-4.28-.11-4.34,2.54-5.68,5.55A31.77,31.77,0,0,1,478.1,284.71Z"/><path class="cls-8" d="M479.61,301.22a22.86,22.86,0,0,1,2.14,7.51,82.76,82.76,0,0,1,7.89-9.05"/><path class="cls-8" d="M466.63,334.53l3,4.42a72.1,72.1,0,0,1,4.51-6.06"/><path class="cls-8" d="M507.11,318.61a13.66,13.66,0,0,1,2.95,4.41,12.77,12.77,0,0,1,3.43-4.79"/><path class="cls-8" d="M515.7,300.17l2.36,4a16.87,16.87,0,0,1,1.86-4.4"/><path class="cls-8" d="M590.19,373.79a10.83,10.83,0,0,0,.38,3.63,38.25,38.25,0,0,1,5.57-4.91"/><path class="cls-8" d="M593.31,332.89a13.14,13.14,0,0,1,3.26,5.27,13.46,13.46,0,0,1,2.66-5.94"/><path class="cls-8" d="M551,331a14,14,0,0,1,5.11,4.87,44.7,44.7,0,0,1,4.24-6.72"/><path class="cls-8" d="M568.66,303.91a17.83,17.83,0,0,1,1.88,3.29,7.34,7.34,0,0,1,2.55-3.81"/><path class="cls-8" d="M588.09,304.93a32,32,0,0,1,2.72,5,29.76,29.76,0,0,1,4.3-7.13"/><path class="cls-21" d="M471.63,245.18a11,11,0,0,0,3.29,13.08c.52.38,1.12.78,1.28,1.4a2.8,2.8,0,0,1-.34,1.75c-1.84,4.3-2.11,9.54.44,13.47s8.36,5.76,12.18,3.07c-.09,5.4,1.62,11.84,6.76,13.49,2.94.94,6.24-.07,8.72-1.91a27.47,27.47,0,0,0,6-7,48,48,0,0,0,5-8.86,26.93,26.93,0,0,0-5.4-28C501.92,237.62,477.78,232,471.63,245.18Z"/><path class="cls-21" d="M476.38,228.64a11.33,11.33,0,0,1-7.38-7.12,21.1,21.1,0,0,1-.76-10.53,20.44,20.44,0,0,1,3.61-9.56,10.74,10.74,0,0,1,8.86-4.46A11,11,0,0,1,493,180.82c.18-8.69,8.47-16.37,17.15-15.88a5.88,5.88,0,0,1,3.11.87,5,5,0,0,1,1.83,3.11c1,5.06-3,9.56-5.14,14.28a28.9,28.9,0,0,0-2.13,10.89,53.53,53.53,0,0,0,3.55,20.65C513,219,515.21,223,516,227.45c1,5.52-.31,11.16-1.74,16.57-.82,3.09-1.73,6.26-3.77,8.72-4.34,5.22-12.73,5.48-18.63,2.13S484,246.06,480,241c-1.49-1.87-3.53-2.59-4.5-5C475.25,235.33,474.55,228.17,476.38,228.64Z"/><path class="cls-21" d="M565.32,192.11a30.14,30.14,0,0,1,24.18-.8,35,35,0,0,1,17.89,16.57c3.29,6.44,4.26,15.24-1,20.18a9.92,9.92,0,0,1,2,19.64c1.39,3.4-.22,7.5-3.08,9.81s-6.69,3.06-10.37,3a9.2,9.2,0,0,1-10.29,14.85c-3.22,6.51-13,8.48-18.52,3.71a7.91,7.91,0,0,1-15,1.73c-1.61,2.24-5.47,1.32-6.94-1s-1.24-5.32-.92-8.06c-3.8,1-7.57-2.9-7.61-6.84s2.54-7.43,5.49-10.05a19.13,19.13,0,0,0,3.53-3.55,11.26,11.26,0,0,0,1.32-7.43,22.82,22.82,0,0,0-6.52-13.52c-.29.26-.87-1-.88-1.39a1.6,1.6,0,0,1,.52-1C548.82,216.62,551.93,198.76,565.32,192.11Z"/><path class="cls-22" d="M482.81,225.23a13,13,0,0,0,3.48,12.45,1.74,1.74,0,0,0,.77.51,1.82,1.82,0,0,0,1.6-.73c3-3.12,4-7.79,3.67-12.13-.16-2.31-1.11-6.07-4.06-6C485.47,219.36,483.42,222.94,482.81,225.23Z"/><path class="cls-13" d="M494.53,201.1c-2.42,3.62-3.63,7.89-4.72,12.1-3,11.47-5.3,23.36-3.86,35.12a55.85,55.85,0,0,0,4.37,15.88,21,21,0,0,0,3.12,5.31c3.77,4.41,10,5.84,15.81,5.73a40.38,40.38,0,0,0,35.33-23.48,13,13,0,0,0,11.94-7.87,15.31,15.31,0,0,0-1.74-14.45c-2.75-3.93-7.87-6.62-12.39-5.05,1-9.61-1.6-20.28-9.31-26.09a29.81,29.81,0,0,0-6.86-3.68C515.6,190.35,501.54,190.58,494.53,201.1Z"/><path class="cls-14" d="M504.65,200.56a9,9,0,0,0,8.16,2.05c-.1,2.69,1.74,5,3.53,7a14.65,14.65,0,0,0,3.91,3.42,5.3,5.3,0,0,0,5,.19,10.51,10.51,0,0,0,2.38,8.36,7.31,7.31,0,0,0,8.18,1.9,4.63,4.63,0,0,0,1,6,6.59,6.59,0,0,0,6.39.82,11.61,11.61,0,0,0,5.13-4.24c2.24-3.1,3.52-7.18,2.35-10.83s-5.33-6.4-8.95-5.15c.54-4.74-2.21-9.42-6.07-12.24s-8.65-4-13.39-4.63a14.34,14.34,0,0,1-4.46-1c-1-.5-1.88-1.25-2.87-1.79C509.18,187.35,498.53,194.92,504.65,200.56Z"/><path class="cls-23" d="M495.14,215.81a3.62,3.62,0,0,1,5.36.78"/><path class="cls-23" d="M515.14,215.61a5.44,5.44,0,0,1,7.47,1.85"/><path class="cls-23" d="M502.24,224.24a23.88,23.88,0,0,1,.66,4.69c.17,4.29-1.06,9-4.51,11.5a11.75,11.75,0,0,0,3.36,2.26"/><path class="cls-23" d="M507,249.59a75.3,75.3,0,0,0,14.55-3.12,14.81,14.81,0,0,1-13,9.41"/><path class="cls-23" d="M549.32,236.28a32.1,32.1,0,0,0-3.35,7.61,10.81,10.81,0,0,0,5.47.34"/><path class="cls-21" d="M498.26,228a1.89,1.89,0,0,0-.44.78,5.07,5.07,0,0,0,.21,3.71,2.09,2.09,0,0,0,.61.83,1,1,0,0,0,1,.18c.49-.19.66-.79.76-1.31a7.09,7.09,0,0,0,.18-2.55C500.41,228.73,499.32,227,498.26,228Z"/><path class="cls-21" d="M516,229.68a4.3,4.3,0,0,0,.25,4.15c.25.44.66.89,1.15.8a1,1,0,0,0,.43-.21,3.57,3.57,0,0,0,1.27-2.57,3.5,3.5,0,0,0-.28-1.87C518.26,228.72,516.79,228.34,516,229.68Z"/><path class="cls-21" d="M529.3,168.81c-2.75-2.49-5.94-4.82-9.64-5.16A12.87,12.87,0,0,0,510,167.3a26.87,26.87,0,0,0-5.9,8.75,27.63,27.63,0,0,0-3,11.75,8.93,8.93,0,0,0,1.76,5.7,10.77,10.77,0,0,0,3.66,2.49c3.71,1.78,8.51,3.06,11.62.38-2.07,3.07.31,7.66,3.85,8.76s7.42-.45,10.28-2.81c-3.8,7.28.28,17.55,8.21,19.66a32.11,32.11,0,0,0,.7,10.11c4.36.57,8.53-2.2,12.92-2.21,2.5,0,4.9.88,7.37,1.22a17.29,17.29,0,0,0,13.23-3.75c4-3.33,6.3-8.28,8.44-13,2.78-6.19,5.57-12.42,7.34-19,1-3.8,1.7-7.89.49-11.63a12.16,12.16,0,0,0-21.49-3.32c3.67-4,1.94-11.15-2.7-13.93s-10.95-1.6-15.14,1.84a12.21,12.21,0,0,0-23.95-2.19,1.77,1.77,0,0,0,.11,1.56C528.16,168.08,529.39,169.35,529.3,168.81Z"/><path class="cls-15" d="M475.15,209.12a6.87,6.87,0,0,0,4.76,5.47c2.59.69,5.83-.86,6.07-3.31"/><path class="cls-15" d="M490,188.28a6.87,6.87,0,0,0-1.48,11.37"/><path class="cls-15" d="M505.23,181.66a8.31,8.31,0,0,1,10.45-5.14"/><path class="cls-15" d="M539.77,177.47a8.06,8.06,0,0,1,14.36,4.13"/><path class="cls-15" d="M537.22,196.73a7.18,7.18,0,0,0,9.5,9"/><path class="cls-15" d="M553.75,215.12a8,8,0,0,0,11,11.33,6.24,6.24,0,1,0,12-1"/><path class="cls-15" d="M574.22,198.24a9.45,9.45,0,0,1,14.08,5.12,5.89,5.89,0,0,1,0,3.93c-.78,1.91-2.8,3-4.66,3.83A11.81,11.81,0,0,1,591.5,215a8.62,8.62,0,0,1,1.62,8.43,6.81,6.81,0,0,1-7.11,4.32"/><path class="cls-15" d="M574.46,255.44a8.19,8.19,0,0,0,4,3.8,4.54,4.54,0,0,0,2.28.43,4.28,4.28,0,0,0,3.32-3.13,12.64,12.64,0,0,0,.22-4.79c1,2.25,4.15,2.72,6.51,1.94a9.16,9.16,0,0,0,6.11-6.83,8,8,0,0,0-3.73-8.21"/><path class="cls-23" d="M505.21,192.57a4,4,0,0,0,.39,5.11,7.53,7.53,0,0,0,5.06,2.08,8.65,8.65,0,0,0,3.65-.45,12.68,12.68,0,0,0,3.83-2.68L521,194"/><path class="cls-23" d="M534.52,207.91A13.62,13.62,0,0,0,530.1,214a7.6,7.6,0,0,0,1.19,7.2c.52.61,1.5,1.11,2.07.54a1.4,1.4,0,0,0,.23-1.31,1.35,1.35,0,0,0-.75-1.07c-.44-.13-1,.39-.72.76"/><path class="cls-23" d="M519,199a7.33,7.33,0,0,0,1.69,7.51,4.43,4.43,0,0,0,2.37,1.32,2.58,2.58,0,0,0,2.47-.87.8.8,0,0,0,.19-.7.88.88,0,0,0-.38-.41,2.7,2.7,0,0,0-1-.56.93.93,0,0,0-1,.43c-.17.37.15.89.54.8"/><path class="cls-15" d="M482.47,259.08a5,5,0,0,0,.06,9.24"/><path class="cls-15" d="M497.06,280.21a3.4,3.4,0,0,0,6.63,1.45"/><path class="cls-17" d="M493.56,177.74a5.78,5.78,0,0,0,5.17-.61,17.15,17.15,0,0,0,3.93-3.68l5.27-6.11a2.74,2.74,0,0,0,.58-.89,1.78,1.78,0,0,0-1.48-2,4.52,4.52,0,0,0-2.74.57,22.63,22.63,0,0,0-11.63,13.12"/><path class="cls-24" d="M547.84,248c-1.72.7-2.68,2.55-3.17,4.34a11,11,0,0,0,.15,7,6.79,6.79,0,0,0,5.27,4.31c2.71.3,5.35-1.51,6.65-3.91a9.18,9.18,0,0,0-2.84-11.92"/><path class="cls-24" d="M485.1,234.14a5.34,5.34,0,0,0-3.69,3.64,9.55,9.55,0,0,0-.27,1.57,12.66,12.66,0,0,0,.37,6,5,5,0,0,0,4.5,3.43"/><path class="cls-23" d="M476.16,227.78a3.59,3.59,0,0,0-3.38,1.46,6.13,6.13,0,0,0-1.1,3.64,9.87,9.87,0,0,0,4.33,8.23"/><path class="cls-23" d="M476.87,258.74c-3.3.33-5.1,4.09-5.41,7.39-.33,3.59.45,7.48,3,10s7.19,3.05,9.71.47"/><path class="cls-23" d="M512.53,165.22a.55.55,0,1,0,0,.12,9.3,9.3,0,0,1,5.28-2.87,13.07,13.07,0,0,1,6,.45,8.06,8.06,0,0,1,2.9,1.44,4,4,0,0,1,1.52,2.77"/><path class="cls-23" d="M564.46,167.16c6.33.6,11.37,7.28,10.22,13.53"/><path class="cls-23" d="M589.17,192.17a7.79,7.79,0,0,1,7.24-.93,14.72,14.72,0,0,1,6.07,4.44,27,27,0,0,1,6.45,20.43"/><path class="cls-23" d="M592.86,274.45c3.48.09,6.29-3.53,6.12-7s-2.68-6.52-5.71-8.23"/><path class="cls-23" d="M535.31,264.47a8.51,8.51,0,0,0,9.23,11.83"/><path class="cls-15" d="M556.33,271.07a6.79,6.79,0,0,0,11.72,1.08"/><path class="cls-17" d="M473.82,251.78a19,19,0,0,0,.2-3.69,7.19,7.19,0,0,0-.93-4.16c-.09-.13-.22-.27-.37-.27a.53.53,0,0,0-.33.17,5,5,0,0,0-1.33,2.45,11.65,11.65,0,0,0,0,6.28c.22.76.53,2.36,1.42,2.14C473.22,254.54,473.71,252.35,473.82,251.78Z"/><path class="cls-17" d="M480.48,274.54a8.82,8.82,0,0,1,3.16,4.34c-1.56.18-3-.63-4.39-1.42a9,9,0,0,1-1.61-1.1,8.85,8.85,0,0,1-1.23-1.5l-.89-1.26a3,3,0,0,1-.72-1.69C476.26,271.81,479.24,273.65,480.48,274.54Z"/><path class="cls-17" d="M498.34,291.39a10.6,10.6,0,0,0-2,0,8.87,8.87,0,0,1-2-.54c-1.12-.45-2.79-1.32-3.29-2.44C493.56,288.1,496.56,289.75,498.34,291.39Z"/><path class="cls-17" d="M546,160.31c.28-.13.6-.34.58-.65a.75.75,0,0,0-.37-.52c-2.77-2.2-8.42-3.42-11.41-.9C536.57,161.65,543.05,161.66,546,160.31Z"/><path class="cls-17" d="M570.66,171.51a8,8,0,0,0-4.15-5.22,11.5,11.5,0,0,0-5.18-1.43c-2,0,.33,1.9,1.06,2.57a17.56,17.56,0,0,0,3.92,2.76C566.69,170.38,570.67,171.56,570.66,171.51Z"/><path class="cls-17" d="M605.38,214.76c.9,2.93,1.94,6,4.11,8.11a19.78,19.78,0,0,0-.18-9.49c-.26-.89-.59-1.75-.92-2.62l-1.29-3.4c-.52-1.35-1.39-4-3-4.33C602.57,206.38,604.37,211.49,605.38,214.76Z"/><path class="cls-17" d="M609.1,247.47a8.52,8.52,0,0,0,4.87-3.32,11.32,11.32,0,0,0,2.12-5c.08-.48.47-2.3-.09-2.52s-1.7,1.27-2,1.55A17.32,17.32,0,0,0,609.1,247.47Z"/><path class="cls-17" d="M608,253.57a2.55,2.55,0,0,1-.87,2.07,16.93,16.93,0,0,1-4.24,3.82c-.72.4-3.36,1.65-4.16,1s1.21-2,1.76-2.44S608,253.42,608,253.57Z"/><path class="cls-25" d="M463.94,402.74c8.06-1.19,12.45-9.81,15-17.49a172.28,172.28,0,0,0,7.91-39c1.56-1.53,3.6,1.4,3.71,3.57.79,14.59-3.67,29.59.4,43.64,2.29,7.91,9,15.85,17.27,14.79,6.75-.87,11.48-7.94,11.22-14.67s-4.52-12.78-9.84-17c-2.74-2.15-5.83-4-8-6.7-3.14-4-3.72-9.42-4.18-14.49a99.74,99.74,0,0,0,16.65,10.46c6.8,3.39,16.29,5.47,21-.44,3.76-4.68,2.88-12.88,8.35-15.41,6.62-3.06,13.31,6.24,20.54,5.24,4.67-.64,7.61-5.34,8.94-9.81s1.84-9.36,4.61-13.14c4.51,23.27-2.14,47.19-10.6,69.35-1.44,3.79-3,7.61-5.47,10.82-5.7,7.35-15.53,10.34-24.86,11.09-21.72,1.75-42.55-6-63.85-8.64a99.46,99.46,0,0,0-16.09-.83c-3.27.14-10.23,2.43-13.14.48-6.6-4.45.41-18.11,3.24-22.81C450.57,397.56,456.12,403.9,463.94,402.74Z"/><path class="cls-8" d="M611.72,472.13a16.78,16.78,0,0,1,2.83,3.93,7,7,0,0,0,2.36-4.59"/><path class="cls-8" d="M623.46,451.78l3.92,3.11.47-6.36"/><path class="cls-10" d="M432.75,524a115.58,115.58,0,0,1,2.3-27.83c1.09-5.29,2.75-10.82,6.83-14.35,3.43-3,8.17-4.08,12.69-3.83a39.9,39.9,0,0,1,13.07,3.48c13.73,5.72,26.07,14.23,38.62,22.22q16.47,10.48,33.59,19.9"/><path class="cls-26" d="M492.74,327a217.91,217.91,0,0,0-5.25,86.9"/><path class="cls-26" d="M579.13,332.7c1.69,16.27,1.3,33.19-5,48.28"/><path class="cls-8" d="M474.37,369.53l3.45,4.66a30.32,30.32,0,0,1,5.54-7.88"/><path class="cls-8" d="M457.31,389.57a12.78,12.78,0,0,1,2.8,5.18,19.6,19.6,0,0,1,3.26-5.38"/><path class="cls-8" d="M454.68,366.91a9.08,9.08,0,0,1,1.7,3.33,21.58,21.58,0,0,1,3.16-5.86"/><path class="cls-8" d="M507.59,375.22a40.13,40.13,0,0,1,2.89,5.21,29.41,29.41,0,0,0,5.33-3.58"/><path class="cls-8" d="M474.68,400.37a12.27,12.27,0,0,1,2.66,4,26.24,26.24,0,0,1,3.45-4.79"/><path class="cls-8" d="M516.36,404l.78,5.17a26.23,26.23,0,0,1,5.28-5.65"/><path class="cls-21" d="M523.4,389.87a3.54,3.54,0,0,0,1.77,2.27,3.6,3.6,0,0,0,2.79-.52c3.86-2,7.17-4.86,10.45-7.7,3.69-3.21,7.5-6.58,9.37-11.09a28.78,28.78,0,0,0,1.73-8.8q.57-7,.53-14.1a4.61,4.61,0,0,0-.29-1.92c-.64-1.41-2.45-1.83-4-1.75-6,.32-10.62,5.28-13.51,10.49s-5.63,10.47-8.29,15.67S521.38,384.48,523.4,389.87Z"/><path class="cls-13" d="M480.24,341.37c1.55,1.61,3.56,2.71,5.25,4.18,3.3,2.87,5.22,7,8.17,10.24a41.43,41.43,0,0,0,6.65,5.51c4.77,3.43,9.58,6.88,14.95,9.25s11.41,3.6,17.16,2.38l5.44,10.51c.49,1,1.11,2,2.16,2.26a3,3,0,0,0,2.06-.44c2.38-1.32,3.73-3.9,4.78-6.41s1.88-4.92,2.72-7.42,1.64-5,1.18-7.55c-.68-3.83-4.16-6.63-7.85-7.88s-7.65-1.27-11.52-1.71c-6.72-.77-13.24-2.78-19.7-4.78a68.79,68.79,0,0,1-9-3.25c-5.55-2.6-10.27-6.61-15.62-9.55-2-1.11-5.63-3.48-7.91-1.81S478.78,339.87,480.24,341.37Z"/><path class="cls-13" d="M522.76,339.52c-.78-.84-1.6-1.86-1.4-3a2.52,2.52,0,0,1,2.26-1.85,7,7,0,0,1,3,.55,78.21,78.21,0,0,1,19.7,10.13,9.11,9.11,0,0,1,3.34,3.47,9.53,9.53,0,0,1,.63,3.05l1.18,12.49a113.37,113.37,0,0,0-16.78-3.87c-4.5-.68-9.08-1.1-13.36-2.66-5.38-2-10.08-5.67-15.66-7a39.29,39.29,0,0,0-6.84-.8l-14.2-.81a9.76,9.76,0,0,1-4.36-.92,3.37,3.37,0,0,1-1.79-3.74c.66-2,3.28-2.28,5.36-2.23l25.9.66c6.52.17,12.56.74,18.51,3.59C529.1,345.11,523.88,340.73,522.76,339.52Z"/><path class="cls-27" d="M525.87,335.14a1.57,1.57,0,0,0-.55,2,4.26,4.26,0,0,0,1.83,1.81,5.87,5.87,0,0,0,1.08.47,3.9,3.9,0,0,0,2.51-.08,1.79,1.79,0,0,0,1.2-1.48"/><path class="cls-28" d="M479.13,339a4.41,4.41,0,0,1,2.37-1.64,4,4,0,0,1,2.76.92,23.26,23.26,0,0,1,4,3.31"/><path class="cls-28" d="M482.69,342.87l15.78,0"/><path class="cls-28" d="M482.27,348.6a1.6,1.6,0,0,1-.89-1.43,1.68,1.68,0,0,1,1-1.36,5.33,5.33,0,0,1,2.16-.32,9.31,9.31,0,0,1,4.14.64,2.79,2.79,0,0,1,1.64,3.05"/><path class="cls-28" d="M488.5,348.78a93.9,93.9,0,0,1,27,5.05"/><path class="cls-27" d="M523.73,372.7c3.15.88,6.5.52,9.75.16l6.67-.75"/><path class="cls-28" d="M492.28,349.06q4.11,2.73,8.27,5.39l2.67,1.69,5,3.18"/><path class="cls-27" d="M524.7,391.06c.35,3.61.71,7.28,2,10.65a39.26,39.26,0,0,0,2.22,4.45l6.92,12.45"/><path class="cls-6" d="M384.08,456.18c1.51-11.78,3.36-24.32,11.18-33.25,9.08-10.37,23.87-13.27,37.58-14.59a299,299,0,0,1,172,35.52c3.59,2,7.2,4.08,10,7.08,3.41,3.67,5.38,8.47,6.57,13.33A51.15,51.15,0,0,1,581,526.7a75.85,75.85,0,0,1-17.88.8,77.17,77.17,0,0,1-17.43-2.69c-9.09-2.67-17.28-7.71-25.23-12.88-15.76-10.26-31.11-21.28-48-29.54-5.47-2.67-11.27-5.09-17.36-5.27s-12.59,2.31-15.73,7.53c-1.89,3.15-2.4,6.92-2.87,10.56l-3.63,28.42c-.35,2.69-28.51,3.28-31.55,3.29-6.44,0-22.57,2.08-25-5.52-1.21-3.75.71-9.8,1.19-13.51l2.19-17Z"/><path class="cls-29" d="M401.69,524.21a415.82,415.82,0,0,1,4.19-44.7c1.48-9.93,3.5-20.24,9.69-28.14,9.63-12.29,26.94-15.66,42.52-14.7,20.17,1.25,39.5,8.2,58.5,15.07,12.28,4.44,24.58,8.89,36.33,14.56,7.27,3.51,14.35,7.49,22,10.06S591,480,598.7,477.62A28.26,28.26,0,0,0,618,452.25"/><path class="cls-18" d="M548.91,347c.7-.56,1.72-.1,2.48.39a61.91,61.91,0,0,1,15.55,14.43"/><path class="cls-12" d="M549.62,348.33a53.52,53.52,0,0,1,25,30,3.58,3.58,0,0,0,1.1,1.91c.94.66,2.23.28,3.32-.09a42.13,42.13,0,0,1,41.38,9,13,13,0,0,1,3.48,4.72c.88,2.38.5,5,.24,7.53-1.15,11.22.22,22.57-.71,33.81s-4.64,23-13.66,30a50,50,0,0,1-11,6c-4.13,1.77-8.48,3.46-13,3.25-7.32-.32-13.49-5.56-17.67-11.46s-7-12.66-11.31-18.44c-3.12-4.16-7-7.73-10.35-11.67A134.09,134.09,0,0,1,537.54,421c-6.09-8.94-12.36-18.45-13.06-29.19,7.5-1.06,14.27-6.28,18-12.77C547.69,369.76,550.77,358.83,549.62,348.33Z"/><path class="cls-8" d="M542.15,406a18.65,18.65,0,0,1,4.54,4.71,23.14,23.14,0,0,1,1.88-8.06"/><path class="cls-8" d="M552.77,364.76l3.07,2.09,0-5.52"/><path class="cls-8" d="M570.59,389.89a48.25,48.25,0,0,1,7.88,2.45l-2-6.53"/><path class="cls-8" d="M574.46,432.53l5.47,3.34A49,49,0,0,1,581,430.8"/><path class="cls-8" d="M606.11,410.47a1.07,1.07,0,0,1-1.09.38,15.11,15.11,0,0,1,7.46-.53,20.87,20.87,0,0,1-4.52-4.43"/><circle class="cls-30" cx="315.04" cy="483.22" r="16.99"/><ellipse class="cls-30" cx="372.27" cy="483.07" rx="16.82" ry="16.97"/><rect class="cls-31" x="310.8" y="472.49" width="8.43" height="14.52" rx="3.91"/><path class="cls-31" d="M307.69,482.22c.33,3.91,2.76,7,7.35,7.13,4,.23,7-3,7.25-7.13"/><ellipse class="cls-6" cx="307.7" cy="482.31" rx="0.5" ry="0.52"/><ellipse class="cls-6" cx="322.29" cy="482.22" rx="0.5" ry="0.52"/><line class="cls-31" x1="315.04" y1="489.35" x2="315.04" y2="493.88"/><ellipse class="cls-32" cx="315.04" cy="493.88" rx="0.49" ry="0.47"/><circle class="cls-30" cx="429.57" cy="483.37" r="16.97"/><rect class="cls-31" x="362.01" y="478.28" width="12.28" height="10.19" rx="0.89"/><path class="cls-31" d="M376.93,481.66c0-.7.29-1,.43-1l4.61-2.2c.46-.19.65.61.65,1.59v7.34c0,.75-.22,1-.65.75l-4.66-2.09c-.08.1-.41-.46-.38-.92Z"/><path class="cls-31" d="M442.19,486.55a2.73,2.73,0,0,1-2.25,2,7.52,7.52,0,0,1-3.15-.3,2.19,2.19,0,0,1-1.46-.83c-.39-.68,0-1.53-.08-2.31a2.37,2.37,0,0,0-1.19-1.64,6,6,0,0,0-2-.65,13.05,13.05,0,0,0-6.6.16,2.31,2.31,0,0,0-1,.52,2.48,2.48,0,0,0-.59,1.23,8.32,8.32,0,0,0-.26,2.53,1.19,1.19,0,0,1-.64,1,4.62,4.62,0,0,1-5.26-.13,1.62,1.62,0,0,1-.67-.91c-.37-1.85-.47-4,.49-5.64a7.11,7.11,0,0,1,4.12-2.79c5.18-1.67,10.88-1.11,16.05.6a6.8,6.8,0,0,1,2.73,1.42A6.52,6.52,0,0,1,442.19,486.55Z"/><path class="cls-33" d="M220.08,364.47a5.28,5.28,0,0,1,5.73,1.38"/><path class="cls-34" d="M177.21,404.88c-4.39-.31-8.87-.61-13.13.47-5.22,1.32-9.69,4.6-14,7.81a196.3,196.3,0,0,0-16.74,13.39c-14.87,13.78-25.08,31.75-38,47.37-6.1,7.37-13.12,14.84-14.53,24.31-1.72,11.61,5.91,23,15.83,29.25S118.4,535.94,130,538c-4.28-3.66-5.43-10-4.25-15.5s4.3-10.36,7.45-15c5.5-8.14,11.34-16.18,18.7-22.7a152.62,152.62,0,0,1-.82,42.58l32.85-.56q36-.6,72-1.17a84.33,84.33,0,0,1,1.43-35.7c3-11.42,8.35-22.29,9.48-34,.79-8.3-.6-16.69-3-24.68-1.67-5.54-3.89-11.06-7.7-15.42C248,406.46,234.39,404.24,222,404a166.34,166.34,0,0,0-23.3,1.2C191.38,406.11,184.57,405.39,177.21,404.88Z"/><path class="cls-30" d="M121.61,513.57c-1.86,8.7-.34,18.42,5.43,25.2a8.24,8.24,0,0,0,2.87,2.35,8.12,8.12,0,0,0,4.93.18c8.93-1.87,15.95-9.28,19.47-17.7,3-7.29,3.81-15.74,1-23.14-2.41-6.35-11.09-17.17-18.73-12.54S123.35,505.42,121.61,513.57Z"/><path class="cls-35" d="M256.58,525.24c-2.57-7.74-5.17-15.69-4.77-23.84.37-7.56,3.32-14.88,3.26-22.46-.11-14.24-10.8-27.26-9.08-41.41A64.24,64.24,0,0,0,239.58,467c.09,4,.3,8.74-2.81,11.33-2.12,1.76-5.11,1.89-7.87,1.93l-57.2.83c-3.59.05-7.9-.29-9.62-3.44-1.51-2.77-.16-6.35-1.35-9.27a121.33,121.33,0,0,0-17.94,23.39,37.6,37.6,0,0,0-4.39,9.95,46.17,46.17,0,0,0-.83,11.21c0,5.53.67,12.12,5.52,14.81Z"/><path class="cls-36" d="M193.63,458.11l.87,62c0,2.17.24,4.69,2.05,5.9a6.9,6.9,0,0,0,3.4.82l13.66.82a4.8,4.8,0,0,0,2.23-.21c1.65-.71,2-2.87,2-4.66l2-42.67c.4-8.49.8-17.11-1.07-25.4a47.4,47.4,0,0,0-4.37-11.81c-3.39-6.4-9.86-8-15.68-3.17C193.6,444.05,193.55,451.81,193.63,458.11Z"/><path class="cls-6" d="M112.63,514c-.11,6,2.12,12.73,7.59,15.2,2.46,1.12,5.25,1.22,7.95,1.27a395,395,0,0,0,78-6.29,13.84,13.84,0,0,1,5.12-.3,36,36,0,0,1,3.6,1.17A10.88,10.88,0,0,0,225,522.81c.39,3.18,3.67,5.48,6.87,5.46s6.15-1.94,8.16-4.43a3.62,3.62,0,0,0,4.43,1.29,7.08,7.08,0,0,0,3.46-3.53,17,17,0,0,0,.17-14.14,27,27,0,0,0-9.22-11.09A40.31,40.31,0,0,0,225.29,490c-5.93-1.55-12.1-1.78-18.22-2-22-.71-43.94-.95-65.92-1.35-6.65-.12-11.72-.72-17.07,3.78A32.35,32.35,0,0,0,112.63,514Z"/><path class="cls-30" d="M274.46,528.89c10.09.69,21-.49,28.79-6.91,3.53-2.9,6.35-7.14,6.12-11.71a19.37,19.37,0,0,0-1.55-5.95q-2.56-6.7-5.62-13.22c-1.58-3.37-3.33-6.8-6.13-9.26-10.45-9.18-29.19-4.12-38.61,4.44-8.08,7.34-11.58,25.27-4.61,33.91C257.91,526.47,266.82,528.36,274.46,528.89Z"/><path class="cls-37" d="M155.8,487.06a2,2,0,0,1,.81.69,2.2,2.2,0,0,1,.11,1.52c-.87,4.5-4.44,7.89-7.68,11.13s-6.5,7.12-6.47,11.71c0,6.14,5.93,10.76,7.16,16.78a2.11,2.11,0,0,1-.12,1.53c-.41.66-1.34.71-2.12.69l-16.73-.44a3.23,3.23,0,0,1-1.82-.42,3.05,3.05,0,0,1-.86-2.66c.19-6,2.56-11.62,5.45-16.82s6.34-10.09,9-15.43a35.58,35.58,0,0,1,3.06-5.63C148,486.39,152,484.93,155.8,487.06Z"/><path class="cls-38" d="M140.87,425.48a18.37,18.37,0,0,0,10.22,5.08,5.23,5.23,0,0,1,3.11,1.06c.77.78.88,2,1.52,2.91,1.24,1.74,3.91,1.59,5.87.75s3.79-2.19,5.92-2.31c1.33-.08,2.76.33,4-.29a4.46,4.46,0,0,0,1.77-2.14,18.64,18.64,0,0,0,.44-15.18C162.78,389.3,142,426.56,140.87,425.48Z"/><path class="cls-38" d="M253.4,427.27c1.87-2.83,3.07-6.35,2.24-9.64-.94-3.7-4.21-6.35-7.59-8.13-9.71-5.12-21.21-5.17-32.19-5.11-1.79,0-3.92.2-4.83,1.75a4.31,4.31,0,0,0-.5,1.87c-.4,4.36,1.29,8.7,3.82,12.27C223.73,433.53,241.47,445.25,253.4,427.27Z"/><path class="cls-39" d="M157.46,422.19c4.55-.09,9.1.06,13.64.42a30.05,30.05,0,0,0-4.51,16.77,82.28,82.28,0,0,1,35.77-3.32,5.36,5.36,0,0,0,1.18-5.31l1.14,6.46a30.75,30.75,0,0,1,27.73,2.8,30.36,30.36,0,0,0-4.68-16.49,23,23,0,0,1,9.91,5.91c.29-8.94-7.54-16-15.46-20.16C201.25,398.35,171.84,402.09,157.46,422.19Z"/><path class="cls-34" d="M180.36,405.72a39.34,39.34,0,0,0-21.66,13.56,171.31,171.31,0,0,0,17.7,0,46.64,46.64,0,0,0-8.67,17.14,42.92,42.92,0,0,1,33-2.16,18.78,18.78,0,0,0,.24-8.88,11.66,11.66,0,0,1,4.54,9.26,17.14,17.14,0,0,1,12.76-2,34.14,34.14,0,0,1,12,5.51,36.53,36.53,0,0,0-6.59-17.78,25.83,25.83,0,0,1,12.78,6.13c.21-4.55-2.67-8.67-5.88-11.91a47.6,47.6,0,0,0-24.28-13.09C197.34,399.74,189.21,403.68,180.36,405.72Z"/><path class="cls-40" d="M207.12,446.78a2,2,0,0,0,2.56-1.65,15.33,15.33,0,0,0,1-6.6c-3.69.53-7.38.83-11.09,1.13s1.59,4.67,2.89,5.45A13.21,13.21,0,0,0,207.12,446.78Z"/><path class="cls-36" d="M196.28,429.7a11.48,11.48,0,0,0,12.88,14.69,135.11,135.11,0,0,0,3.38-14.17,33.26,33.26,0,0,0-17.21.37"/><path class="cls-41" d="M237.41,503.08a13.45,13.45,0,0,1,6.94,4,40.09,40.09,0,0,1,4.86,6.49"/><path class="cls-41" d="M237.28,508.45c.29-.27.74.06,1,.37,2.88,3.55,5.8,7.17,7.43,11.44"/><path class="cls-41" d="M237.84,513.07q1.36,5.89,2.59,11.82"/><path class="cls-41" d="M225.6,521a1.49,1.49,0,0,0,1.05-.1l7.8-2.72"/><path class="cls-34" d="M130.55,541.92c-5.05-15.39,1.22-33.75,14.62-42.84,2-1.33,4.08-2.5,5.66-4.28s2.51-4.36,1.6-6.55-4.18-3.24-5.8-1.5c.43-3.84-1.91-7.63-5.18-9.67a18.16,18.16,0,0,0-11.15-2.24,31.13,31.13,0,0,0-22.74,13.7,36,36,0,0,0-5.19,26.27c1.15,6.27,3.28,14.75,8.51,18.39A67.3,67.3,0,0,0,120,538C121.19,538.62,130.3,541.16,130.55,541.92Z"/><path class="cls-42" d="M215,332.29c3,3.59,8.14,4.42,12.21,6.74a17.84,17.84,0,0,1,7.19,23.35"/><path class="cls-42" d="M153.57,392.22a52.11,52.11,0,0,0,5.73,30.71"/><path class="cls-15" d="M174.58,398.36c-.15,5.42,1.65,10.67,2.83,16s1.66,11.1-.92,15.87"/><path class="cls-15" d="M186.41,402.66a83.6,83.6,0,0,1,1.33,26"/><path class="cls-6" d="M234.11,400.87a16.93,16.93,0,0,1-10.53,13.43,28.15,28.15,0,0,1-6.51,1.65c-.7,3.56-1.73,7.45-4.75,9.47a11.24,11.24,0,0,1-4.06,1.54,26.66,26.66,0,0,1-13.81-.79,8.79,8.79,0,0,1-3.44-1.86c-2.26-2.17-2.16-5.8-1.45-8.86s1.84-6.2,1.1-9.24-3.85-5.09-7-5.86c-4.34-1.06-8.7-2.48-12.26-5.19s-6.21-6.92-6.09-11.39a11.06,11.06,0,0,1,21.81-2.29,62.67,62.67,0,0,0-6.62-17.37,23.34,23.34,0,0,1-2.83-6,17.93,17.93,0,0,1,.38-7.8c.47-2.18,1.06-4.46,2.6-6.07s4-2.39,6.31-3a61,61,0,0,1,13.27-2.49,59.12,59.12,0,0,1,7.64.35l7.48.65a19.39,19.39,0,0,1,4.8.83,14.21,14.21,0,0,1,6.09,4.72c5.7,7.05,7.4,16.42,8.91,25.37.51,3,1,5.95,1.25,9C237,386.94,235,393.61,234.11,400.87Z"/><path class="cls-30" d="M217,415.82a36.28,36.28,0,0,1-17.36-2.55,25.79,25.79,0,0,0,15.85,7.46.39.39,0,0,0,.24,0,.3.3,0,0,0,.13-.16A8,8,0,0,0,217,415.82Z"/><path class="cls-33" d="M173.64,389.42l6.12-2.89q-2.74-2.23-5.6-4.34"/><path class="cls-33" d="M213.94,397.53a18.47,18.47,0,0,0-6.06-.95l-3.62-.17a12.37,12.37,0,0,0,2.53,2.86c1.83,1.35,4.3,1.31,6.57,1.2"/><path class="cls-33" d="M213.9,367.86a46.61,46.61,0,0,0,7.93,18.07,21.23,21.23,0,0,1-4.63,1.69"/><path class="cls-33" d="M194.64,364.3a5.75,5.75,0,0,1,5.68-4.14"/><ellipse class="cls-30" cx="202.6" cy="373.87" rx="1.72" ry="2.73"/><ellipse class="cls-30" cx="223.55" cy="372.16" rx="1.72" ry="2.73"/><path class="cls-30" d="M198,364l10.33-.38c1.42-.05,3.05-.21,3.86-1.38a4.4,4.4,0,0,0,.45-2.87,38.29,38.29,0,0,0-5.08-16,39.35,39.35,0,0,1,8.19,19.15,12.69,12.69,0,0,0,7.49.42,87.75,87.75,0,0,0-2.58-19.15,44,44,0,0,1,6.74,18l2.55-.11a175,175,0,0,1,1.47,55l11.7-1.39-1.93-30c-.74-11.48-1.61-23.42-7.29-33.43a74,74,0,0,0-8.62-11.5c-3.81-4.42-7.89-9-13.38-10.95-10-3.59-20.63,2.5-31.14,4.09a52.22,52.22,0,0,0-6.86,1.14c-6,1.79-10.35,7.14-13.21,12.75a50.83,50.83,0,0,0-5,16c-.74,5.25-.65,10.6-1.53,15.83-.79,4.65-2.34,9.24-2.05,13.95.35,5.64,3.3,10.75,4.73,16.22a30.76,30.76,0,0,1-.56,17.32c12.68,3.15,26.12,6.28,38.6,2.41a113.39,113.39,0,0,1-1.52-29.94c-5.11,1.62-10.62-.1-15.71-1.82-3.11-1.05-6.37-2.19-8.54-4.66a12.12,12.12,0,0,1-2.7-6.21c-.93-6,2.71-13.16,8.77-13.71,5.54-.51,10,4.34,13.21,8.87a18.92,18.92,0,0,0,7.62-18.38c-1-5.76-4.78-10.44-6.45-15.94C195.82,345.46,197.07,364,198,364Z"/><path class="cls-42" d="M167.8,338.73c-3.32,1.43-5.82,4.1-8.05,6.82-3.07,3.74-5.86,7.85-6.8,12.5s.29,9.94,4.17,13"/><path class="cls-15" d="M195.89,340c2.57,3.71,5.68,7.08,7.78,11.09s3.1,8.94,1.17,13"/><path class="cls-15" d="M216.28,341.89a36.16,36.16,0,0,1,4.49,21"/><path class="cls-15" d="M183.81,340.39c-2.22.85-2.74,3.78-2.39,6.12.79,5.27,4.11,9.84,5.36,15a19.85,19.85,0,0,1-2.46,15"/><path class="cls-15" d="M175.79,340.81c-3.24,1.75-4.8,5.52-5.65,9.11a42.68,42.68,0,0,0,1,23.07"/><path class="cls-15" d="M227.23,345.26c.27,6.92,5.41,12.85,6.11,19.74.22,2.08,0,4.21.47,6.25.34,1.54,1.05,3,1.51,4.47,1.67,5.53-.1,11.45.1,17.22.27,7.47,3.86,14.64,3.37,22.1"/><path class="cls-43" d="M190.39,424c.08-.18-3.33-6.82-3.51-7.93-.32-1.91-1-6.55,1.49-7.42C193.58,406.81,191.49,421.61,190.39,424Z"/><path class="cls-43" d="M190,379.2c1.43.67,2.89-.84,3.61-2.24,2.06-4.06,3.32-10.2,1.29-14.45C193.08,363.75,186.83,377.7,190,379.2Z"/><path class="cls-15" d="M171.76,394.36c-1.43,3.05.34,6.52,1.28,9.75a19.88,19.88,0,0,1-1,13.73c-1.28,2.77-3.27,5.65-2.48,8.6"/><path class="cls-15" d="M181.66,398.83A28.64,28.64,0,0,0,184,416.22a33.35,33.35,0,0,1,2.49,5.53,6.31,6.31,0,0,1-.92,5.76"/><path class="cls-15" d="M163.34,353.87c-2.85,5.58-3.36,12.1-2.86,18.35s1.92,12.39,2.72,18.61a94,94,0,0,1-1,30.21"/><path class="cls-43" d="M205.87,333.6a53.23,53.23,0,0,0,11.78,1.62c-.65,0-3.77-3.48-4.68-4a17.24,17.24,0,0,0-6.65-2.16c-1.17-.13-5.39-.62-5.73,1C200.18,331.94,204.69,333.3,205.87,333.6Z"/><path class="cls-6" d="M265.4,522.68c6,8,19.33,9,26.41,1.93,6.91-6.86,6.8-17.8,6.24-27.47-.7-11.82-1.4-23.7-3.84-35.3a208.28,208.28,0,0,0-6.14-21.74q-6.06-18.5-13-36.7c-2.56-6.7-5.4-13.64-10.86-18.34-5.23-4.52-12.21-6.41-18.92-8.16-4.06-1.06-9-1.9-11.91,1.1l-.12,3.45c-2.51,1.46-4,5.41-2.83,8.05-4.19,1.41-4.61,7-4.25,11.39.22,2.59.52,5.39,2.29,7.31s4.87,2.5,7.52,1.95a20.91,20.91,0,0,0,7.24-3.52,18.28,18.28,0,0,0,7.69,2.44,428.33,428.33,0,0,0,3.75,90.73C255.93,508.4,260.17,515.68,265.4,522.68Z"/><path class="cls-44" d="M236.24,376.58a2.68,2.68,0,0,0-2.79,1.65,5.08,5.08,0,0,0,0,3.44"/><path class="cls-41" d="M240.18,381.36a47,47,0,0,0-6.06.22c-2,.35-4,1.47-4.71,3.38a4.13,4.13,0,0,0,.94,4.19"/><path class="cls-41" d="M240.69,388.58a29.22,29.22,0,0,0-8.45.44,7.73,7.73,0,0,0-3.75,1.58c-1.89,1.69-2,4.57-2,7.1.05,2.77.12,5.64,1.3,8.14s3.79,4.56,6.54,4.18"/><path class="cls-41" d="M235.88,404.54a13.28,13.28,0,0,1,4.38-1,4.56,4.56,0,0,1,1.43.09c1.29.35,2.1,1.59,2.79,2.73"/><g class="cls-45"><path class="cls-30" d="M437.73,269.54l-202.36.22c4-14.2,7.95-28.41,13-42.24,3.4-9.24,7.39-18.45,13.8-25.91s16.17-11.47,25.81-13.42c5.69-1.15,11.53,1.1,17.32.81a19.45,19.45,0,0,0,5.07-.92c5.86-1.88,10.95-3,17-1.76,2.5.53,5,1.44,7.52,1.5a33.28,33.28,0,0,0,4.88-.44,33.81,33.81,0,0,1,6.44-.1c6.27.49,12.5,2.73,18.72,1.76,2.86-.45,5.58-1.57,8.38-2.29a31.36,31.36,0,0,1,25.08,4.36c5.89,4,10.22,9.89,13.95,15.95C424.43,226.63,430.81,247.62,437.73,269.54Z"/><path class="cls-34" d="M305.93,196a135.15,135.15,0,0,0-12.48,7.68,33.17,33.17,0,0,1,7.64.59c-.72,4.94-1.36,10.21-2.08,15.15,11.44-1.35,23-2.73,33.78-6.79a2.8,2.8,0,0,0,1.48-1,2.86,2.86,0,0,0-.22-2.59,29,29,0,0,0-5.47-8.75,36.16,36.16,0,0,0-6-4.6,16.62,16.62,0,0,0-6.14-3C312.89,192.13,309.11,194.23,305.93,196Z"/><path class="cls-6" d="M341.43,209.93a2.13,2.13,0,0,1-.05,1.06,4.63,4.63,0,0,1-.7,1.51.89.89,0,0,1-.35.32.86.86,0,0,1-.75-.17c-1.83-1.21-1.18-2.11.29-3.24a1.52,1.52,0,0,1,.48-.27,1,1,0,0,1,1,.59C341.39,209.8,341.42,209.87,341.43,209.93Z"/><path class="cls-46" d="M248.48,227.38a54.64,54.64,0,0,1,31.58-.94c6.88,1.87,13.34,5.09,20.21,7a110.75,110.75,0,0,0,17.4,2.84c11.73,1.27,23.78,2.52,35.15-.57,7.44-2,14.26-5.83,21.43-8.63a84.13,84.13,0,0,1,21.81-5.32c10.09-1.07,21.71.38,27.81,8.49"/><path class="cls-46" d="M245.47,242.35c8.63-5.76,20.08-4.79,30.12-2.15,20,5.27,39.55,16.39,60.1,13.66,18.77-2.5,35.22-16.41,54.15-16,13.44.3,25.93,7.89,39.37,8.06"/><path class="cls-34" d="M313.82,270.91q19.89.7,39.82.47L353,245.67c-.17-6.73-.36-13.57-2.72-20-4.45-12.07-25.41-35.24-35-13.1C313,217.71,308.28,270.71,313.82,270.91Z"/><path class="cls-36" d="M324,220.06a52.53,52.53,0,0,0,.05,10l2.58,36.77a6.87,6.87,0,0,0,.66,3c1.06,1.86,3.56,2.32,5.7,2.16s4.32-.75,6.39-.18a299.34,299.34,0,0,0,.3-52.71c-.29-3.3-.66-6.69-2.2-9.63C330.59,196.3,324.89,213.16,324,220.06Z"/><path class="cls-36" d="M339.65,203.93c1.42-.19,3-.71,4.18,0,1.38.85,1.13,2.71.72,4.17l-1.6,5.7a9.15,9.15,0,0,1-1.74,3.8c-1.92,2.11-5.35,2.37-8.39,2.47-2.51.08-5.26.09-7.23-1.31a8.2,8.2,0,0,1-2-2.17c-2.5-3.62-4.71-9-.22-11.87C328.18,201.7,334.57,204.62,339.65,203.93Z"/><path class="cls-46" d="M378.64,232.1a129.5,129.5,0,0,1,10.49,38.42"/><path class="cls-6" d="M366.6,167.81A11.68,11.68,0,0,1,377,181.37a13.27,13.27,0,0,1-16.19,9.95c-.87,4.9-4.76,8.62-8.49,11.91a22.05,22.05,0,0,1-5.69,4,19.12,19.12,0,0,1-6,1.27c-6.88.6-14,0-20.34-2.65s-11.81-7.41-14.5-13.77c-4.36.13-9-.73-12.27-3.59a11.95,11.95,0,0,1-.89-17.17,7.5,7.5,0,0,1,6.17-2.66,98.68,98.68,0,0,1,4.46-21.08c1.93-5.89,9.31-7.36,15.34-8.79a58.88,58.88,0,0,1,9.16-1.28c6-.46,12.24-.53,17.91,1.55a31.7,31.7,0,0,1,8.77,5.13C361.51,149.88,367.14,158.78,366.6,167.81Z"/><path class="cls-41" d="M317,162.07a5.35,5.35,0,0,1,6.79.19"/><path class="cls-41" d="M341.91,162.1a10.42,10.42,0,0,1,4.36-1.79,4.24,4.24,0,0,1,4.11,1.82"/><ellipse class="cls-30" cx="323" cy="173.01" rx="1.7" ry="2.68"/><ellipse class="cls-30" cx="347.41" cy="173.01" rx="1.7" ry="2.68"/><path class="cls-33" d="M334.57,164.66a27.85,27.85,0,0,0,4.92,16.44,48.28,48.28,0,0,1-4.08,2.93"/><path class="cls-33" d="M297.24,182.34c0,.08.13.08.21,0,1.27-.54,2.8-1.31,4-2a51.88,51.88,0,0,1-6.09-1.93"/><path class="cls-33" d="M370.15,176.55l-1.62,1a36.78,36.78,0,0,0-4.16,2.84.55.55,0,0,0-.12.14c-.09.21.21.38.44.43,1.57.31,3.13.67,4.68,1.07"/><path class="cls-36" d="M370.55,160.93A34.65,34.65,0,0,1,367,175.44c-1.29,2.61-3.47,5.37-6.38,5.19-.39-4.56,2.1-9,1.48-13.59-.4-2.95-2.1-5.83-1.42-8.73.23-1,.69-2.1.06-2.88a2.6,2.6,0,0,0-1.06-.67,28,28,0,0,1-5.9-3.58,7.82,7.82,0,0,1-2.39-2.7,3.3,3.3,0,0,1,.25-3.44,14,14,0,0,1-5.16-.69,4.81,4.81,0,0,1-3.18-3.82,19.56,19.56,0,0,1-9.93,2.16,2.13,2.13,0,0,0-1.23.16c-.61.35-.68,1.18-.69,1.89,0,4.37,0,9.12,2.74,12.55a10.34,10.34,0,0,1-6.28-5.2,30.59,30.59,0,0,1-2.72-7.89,46.74,46.74,0,0,0,1.93,18.17,28.2,28.2,0,0,1-5.94-8.88c-1.24-3.37-1.26-7.36.75-10.33a18.26,18.26,0,0,0-2,12.08,10.14,10.14,0,0,1-2.83-10.07c-.62,2.25-3.22,3.23-5.48,3.81s-4.87,1.38-5.72,3.55c-1,2.57,1.1,5.41.67,8.13a4.61,4.61,0,0,1-4.75,3.73c1.83,5.92,3.62,12.56.83,18.09a22.73,22.73,0,0,1-8.32-17.81,38.68,38.68,0,0,0,.06-4.17c-.37-3.92-2.9-7.25-4.65-10.78s-2.6-8.19.05-11.11c1.29-1.42,3.21-2.17,4.35-3.7,1.41-1.89,1.32-4.48,2.09-6.71,1.47-4.28,5.92-6.77,10.24-8.11a18.34,18.34,0,0,0,3.9-1.48c1-.56,1.76-1.33,2.65-2a12.24,12.24,0,0,1,16.29,2.53,25.2,25.2,0,0,1,6.49-4.82,9.19,9.19,0,0,1,8.11-.26c1.17.62,2.29,1.62,3.61,1.5a6.43,6.43,0,0,0,1.95-.7c4.34-1.89,9.47.33,12.94,3.55s6,7.38,9.48,10.58a6.84,6.84,0,0,0,3.14,1.86c1.85.37,3.69-.6,5.33-1.54a14.3,14.3,0,0,1-2.34,6.94c-.65,1-1.44,1.83-2.06,2.8-2.12,3.34-2.09,7.54-2.34,11.49S373.72,158.56,370.55,160.93Z"/><path class="cls-46" d="M297.3,127.35a13.17,13.17,0,0,1,5-7.72,7.22,7.22,0,0,1,2.37-1.22c1-.26,2.06-.2,3.08-.42a29.52,29.52,0,0,0,4.24-1.78c1.44-.55,3.25-.67,4.35.41"/><path class="cls-46" d="M326.71,119.21a23.24,23.24,0,0,1,4.52-5.29,7.84,7.84,0,0,1,6.53-1.74,11.16,11.16,0,0,1,3.34,1.68"/><path class="cls-46" d="M348.86,115.73c3.2-1.72,7.19-1.38,10.54,0s6.2,3.76,9,6.09c3.55,3,7.26,6.13,8.74,10.5"/><path class="cls-46" d="M349.66,143a6.05,6.05,0,0,0-1.06,3.21c.09,1.5,1.25,2.68,2.33,3.71l3.87,3.68c2.77,2.64,5.91,5.43,9.74,5.57"/><path class="cls-46" d="M329.82,143.64c2.62,1.67,6,1.11,9,.25a8.82,8.82,0,0,0,2.57-1.08,9.27,9.27,0,0,0,2.64-3.73"/><path class="cls-46" d="M304.65,150.8a11.35,11.35,0,0,0,12.23-6"/><path class="cls-8" d="M369.61,161.09c1.18,1.29,3.48.75,4.55-.62a8.52,8.52,0,0,0,1.34-5,29.21,29.21,0,0,0-.33-7,12.64,12.64,0,0,0-3-6.25"/><path class="cls-33" d="M292,150.86c.73-2.35,1.52-4.8,3.28-6.51a2.16,2.16,0,0,1,1.25-.72c1-.1,1.74,1,2.26,1.86a11.22,11.22,0,0,0,2.43,3.08,5.46,5.46,0,0,0,3.61,1.36"/><path class="cls-33" d="M294.84,135.06c3.35-1,7.34-1,10,1.33a17.88,17.88,0,0,0,2.74,2.49,7.62,7.62,0,0,0,2.74.76,58.08,58.08,0,0,0,6.72.49"/><path class="cls-33" d="M302.34,125.75a17.05,17.05,0,0,1,5.85-1.23,6,6,0,0,1,2.52.34,7.09,7.09,0,0,1,1.75,1.18,28.06,28.06,0,0,1,6,6"/><path class="cls-33" d="M310.22,119.5a13.32,13.32,0,0,1,5,.53,6.23,6.23,0,0,1,3.73,3.19,18.73,18.73,0,0,1,.83,4.11"/><path class="cls-33" d="M325.08,122.17a52.47,52.47,0,0,0-6.44,17.32"/><path class="cls-33" d="M321.86,128a33.28,33.28,0,0,1,5.06-4.36,11.05,11.05,0,0,1,6.28-2"/><path class="cls-33" d="M324.37,131.3a30.62,30.62,0,0,1,13-7.27,6.1,6.1,0,0,1,3.35-.2,6.61,6.61,0,0,1,2.42,1.65c4.41,4,9,8,14.26,10.76s11.5,4.19,17.32,2.82"/><path class="cls-33" d="M320.41,139.84a30.24,30.24,0,0,1,8.4,3"/><path class="cls-33" d="M338.42,136.91a8.46,8.46,0,0,0,4.62-5"/><path class="cls-33" d="M347.67,140.57a2.68,2.68,0,0,0,1.79,2.14,7.6,7.6,0,0,0,2.89.38l17.74.14"/><path class="cls-33" d="M361.12,156.07a6.38,6.38,0,0,0,7.18,1.55"/><path class="cls-6" d="M315.37,271.19l3.6-27.77a18.65,18.65,0,0,1,.88-4.21c1.83-4.85,7.66-8.55,6.59-13.63,4.42,1.52,9.79-2,10.11-6.7,3.22-.54,4.6-5.4,2.13-7.55l2.32-1.92a12.83,12.83,0,0,0-18.78-9.92l18.52-5.24a4.86,4.86,0,0,0,2.19-1.05c1.12-1.14.78-3.18-.33-4.34a8.11,8.11,0,0,0-4.33-1.94c-13.12-2.62-24.74,3.8-34.27,13.21-15.58,15.39-24.57,36.07-33.2,56.2l-6.12,14.28Z"/><path class="cls-33" d="M306.24,197.28a43.4,43.4,0,0,1,33-9.34,10.06,10.06,0,0,1,5.39,2c1.47,1.28,2.15,3.65,1,5.22-1.36,1.87-4.14,1.61-6.44,1.45a26.76,26.76,0,0,0-16.41,4.3"/><path class="cls-33" d="M335.75,187.53a2.85,2.85,0,0,0,0,3.55,4.33,4.33,0,0,0,3.39,1.55,4.2,4.2,0,0,0,3-1.06,2.71,2.71,0,0,0,.64-3"/><path class="cls-6" d="M334.38,223.61a8.8,8.8,0,0,0,1.74-1.48,2.88,2.88,0,0,0,.72-2.1c0-.44-.32-.92-.76-.95a1.22,1.22,0,0,0-.78.34,54.82,54.82,0,0,1-5.23,3.37c-1.13.64-2.71,1.58-3.14,2.93C325.93,228.83,333.54,224.2,334.38,223.61Z"/><path class="cls-6" d="M338.47,215l-1.73,3.26c-.13.24-.26.54-.11.77a.7.7,0,0,0,.46.25,2.91,2.91,0,0,0,2.42-.94,5.05,5.05,0,0,0,1.43-2.76c.1-.67,0-2-.86-2.16S338.76,214.45,338.47,215Z"/><path class="cls-6" d="M341.08,209.24s0,.07,0,0,0-.08-.05-.1a1.23,1.23,0,0,0-1.49.13,2.75,2.75,0,0,0-.78,1.4.5.5,0,0,0,0,.27.69.69,0,0,0,.1.19l.65,1a1.16,1.16,0,0,0,.41.44c.45.25,1-.13,1.29-.56a2.19,2.19,0,0,0-.15-2.79"/><path class="cls-33" d="M315.77,206.51l3-2.4a24.6,24.6,0,0,1,5.47-3.59,12.53,12.53,0,0,1,17.19,8.91c.95,1-.22,3.21-1.53,3.71"/><path class="cls-33" d="M325.4,215.08a13.74,13.74,0,0,1,5.28-2.93,4.42,4.42,0,0,1,2.41-.17c1.42.4,2.24,1.87,2.73,3.26a20.29,20.29,0,0,1,1.06,4.48,3.11,3.11,0,0,1-.12,1.66,3.38,3.38,0,0,1-.78,1,21.9,21.9,0,0,1-4,3.35,7.43,7.43,0,0,1-5,1.17c.13-1.11-.31-2.22-.18-3.33.26-2.09,2.41-3.36,4.39-4.09"/><path class="cls-33" d="M323.5,209.67c2-1.66,4.13-3.37,6.66-4s5.62,0,7,2.19a14.21,14.21,0,0,1,1,2.29,11.76,11.76,0,0,0,2.41,3.66c.9.92.36,2.76-.36,3.84a3.89,3.89,0,0,1-3.29,1.71"/><path class="cls-33" d="M320.11,238l3.64-4.51a16.24,16.24,0,0,0,1.58-2.19,8.43,8.43,0,0,0,1-2.85,4.64,4.64,0,0,1,.53-2"/><path class="cls-47" d="M348.42,116.55a7.09,7.09,0,0,0,12.72,2.54,10.68,10.68,0,0,0-13.43-2.37"/><path class="cls-47" d="M315.9,116.06a4.25,4.25,0,0,0,6.44,2.61c.92-.71,1.44-2.25.53-3a2.59,2.59,0,0,0-1.63-.36l-5.09.06"/></g></svg>