<svg id="Capa_1" data-name="Capa 1" xmlns="http://www.w3.org/2000/svg" xmlns:xlink="http://www.w3.org/1999/xlink" viewBox="0 0 659.32 697.13"><defs><style>.cls-1,.cls-10,.cls-11,.cls-14,.cls-18,.cls-22,.cls-23,.cls-8{fill:none;}.cls-2{fill:#ff914d;}.cls-3{fill:#464646;opacity:0.18;}.cls-4{clip-path:url(#clip-path);}.cls-5{fill:#c4cccc;}.cls-6{fill:#e4ae80;}.cls-12,.cls-7{fill:#d29e76;}.cls-7{opacity:0.65;}.cls-11,.cls-14,.cls-8{stroke:#1a1326;}.cls-10,.cls-11,.cls-14,.cls-18,.cls-22,.cls-8{stroke-linecap:round;}.cls-11,.cls-8{stroke-linejoin:round;}.cls-8{stroke-width:3px;}.cls-9{fill:#1a1326;}.cls-10{stroke:#28183a;}.cls-10,.cls-14,.cls-18,.cls-22,.cls-23{stroke-miterlimit:10;}.cls-11{stroke-width:0.75px;}.cls-12{opacity:0.47;}.cls-13{fill:#151314;}.cls-14{stroke-width:0.5px;}.cls-15{fill:#e28e81;opacity:0.45;}.cls-16{fill:#0a6ca6;}.cls-17{fill:#1772b3;}.cls-18{stroke:#84a5a5;opacity:0.58;}.cls-19{fill:#879da3;opacity:0.64;}.cls-20{fill:#93829d;}.cls-21{fill:#babfbf;}.cls-22{stroke:#b4c1c0;}.cls-23{stroke:#373536;stroke-width:0.25px;}</style><clipPath id="clip-path"><rect class="cls-1" x="166.04" y="166.82" width="346.82" height="420.11" rx="26.67"/></clipPath></defs><rect class="cls-2" x="166.04" y="166.82" width="346.82" height="420.11" rx="26.67"/><path class="cls-3" d="M470.25,546.61l-86.58.18c-52.87.1-105.75.21-158.59-1.63-15.78-.55-32.5-1.57-45.51-10.54s-19.76-28.85-9.62-41c4.29-5.12,10.66-7.94,16.79-10.58l84.69-36.46c-5.79-11.77-17.67-19.4-24.71-30.48-6.78-10.66-8.56-23.64-10.18-36.17l-6.39-49.35c-.91-7-1.83-14.09-1.6-21.18.46-14.69,5.76-28.75,11-42.49,2.67-7,5.44-14.18,10.38-19.83,11.25-12.83,30.43-14.54,45.09-23.28a52,52,0,0,0,15.15-13.75c12-4.35,20.23,6.44,31.49,12.44,13.38,7.14,33.7,4.32,40.24,18,1.43,3,2,6.59,4.65,8.61,2.21,1.7,5.22,1.75,8,2.27,9.92,1.89,17.32,10.7,20.66,20.23s3.44,19.82,3.95,29.9c.26,5.08.7,10.35,3.23,14.76,2.18,3.79,5.72,6.6,8.33,10.1,8.48,11.4,5.46,28.1-2.52,39.85s-20,20.06-30.6,29.47c-4.24,3.76-8.41,7.89-10.54,13.14-5.63,13.83,5.28,29.42,18.48,36.4s28.6,8.64,42.28,14.62c11.83,5.16,22,13.38,32,21.5,13.48,10.91,28,23.67,29.8,40.93.56,5.35-.3,11.05-3.5,15.37C497.94,548.71,484,546.58,470.25,546.61Z"/><g class="cls-4"><path class="cls-5" d="M454.35,581.13c-43,23.77-89.57,42.34-138.42,47.13s-100.24-5.15-140-34c-3.72-2.69-7.44-5.67-9.53-9.76-2.34-4.59-2.35-10-2.21-15.11a417.11,417.11,0,0,1,4.36-49.79c1.28-8.64,3-17.68,8.64-24.37,6.38-7.61,16.49-10.74,26-13.51l70.39-20.43c18.76-5.44,38.47-4.8,58-6,23.64-1.4,47.65-2.78,70.77,2.34,30.48,6.75,57.29,24.28,83.34,41.47,5.47,3.61,11.06,7.33,14.91,12.63s5.8,12.15,7.54,18.67c4.38,16.44,8.66,34.48,1.56,49.95-2.82,6.14-7.28,11.39-12.13,16.09-22.76,22-54.63,32.64-86.17,35.4s-63.23-1.69-94.58-6.11"/><path class="cls-6" d="M289.2,460.84c.7,6.37,1.91,13.29,7.27,17.68,3.77,3.09,9,4.38,14,5.56,20,4.7,42.95,8.8,60.1-1.28a14.81,14.81,0,0,0,5.47-4.87,15,15,0,0,0,1.63-5.54,181.53,181.53,0,0,0-2.13-65.87c-.43-1.95-1-4-2.64-5.39s-3.81-1.65-5.92-2c-21.24-3.22-60.11-10.09-76.28,7.39C280.07,418,287.72,447.36,289.2,460.84Z"/><path class="cls-7" d="M341.68,418c11.8-3.41,23.94-8,31.2-16.89-2.86,7.57-5.83,15.29-11.38,21.6-9.33,10.59-24.49,15.59-39,19.7-4.52,1.28-9.06,2.53-13.7,3.38a83.75,83.75,0,0,1-21.91,1.09c-.55,0-2.61-16.11-1.91-17.4,1.67-3.07,13.08-2.6,17-3.13A276.64,276.64,0,0,0,341.68,418Z"/><path class="cls-6" d="M369.28,341.87a37.35,37.35,0,0,1,27.18-16.94c11.5-1.19,24,4.19,28.38,13.49a24.87,24.87,0,0,1,2.09,7.46c.84,6.25,0,12.91-4,18.17-5.24,7-12.94,11-21.9,13.9-14.32,21.71-38.36,37.65-64.6,47.91-11.34,4.43-23.45,7.95-35.88,7.83-25.42-.23-49.23-17.66-53.84-39.4-1.88-8.89-.86-18,.28-27q4.53-35.76,11.25-71.28a34.63,34.63,0,0,1,17.15-23.74c19.58-10.94,45-13.52,67-6.8,5.79,1.77,11.42,4.21,15.85,7.9,8.67,7.21,11.59,18.16,12.79,28.54A132.85,132.85,0,0,1,369.28,341.87Z"/><path class="cls-8" d="M267.36,325.56a15.51,15.51,0,0,1,8.66-3.3c3.2-.11,6.56,1.16,8.21,3.55"/><path class="cls-8" d="M314.77,328a14.9,14.9,0,0,1,10.2-2,13.48,13.48,0,0,1,8.62,5.14"/><path class="cls-9" d="M269.89,342.43a6.92,6.92,0,0,0-1.34,3.76,9.14,9.14,0,0,0,.06,4.32,4,4,0,0,0,3.48,2.74,4.12,4.12,0,0,0,3.47-1.9,7.34,7.34,0,0,0,1-3.62C276.71,345.1,273.78,338,269.89,342.43Z"/><path class="cls-9" d="M317,345.36a6,6,0,0,0-1.7,3.38,7.1,7.1,0,0,0,.48,5.13,4.6,4.6,0,0,0,5,2.1,4.83,4.83,0,0,0,3-3.26,7,7,0,0,0,.14-4.66C323,345.62,319.65,343,317,345.36Z"/><path class="cls-10" d="M290.52,393.31a308.83,308.83,0,0,0,37.14-7.71c-1.24,6.16-5.78,11.84-12.23,15.27a34.11,34.11,0,0,1-22.2,3"/><path class="cls-10" d="M407.23,346a62.22,62.22,0,0,1-8.08,12,36.16,36.16,0,0,1,10.52,1.5"/><path class="cls-11" d="M295.29,334.6a110.64,110.64,0,0,1-9.88,23.64c-2.16,3.86-4.57,7.64-6.06,11.73a2.77,2.77,0,0,0-.1,2.38c.53.92,1.86,1.19,3,1.31a37.72,37.72,0,0,0,10.87-.46"/><path class="cls-12" d="M265.11,320.38q6.33-17.73,11.22-35.83c1.6,5.79,8.43,10.12,15.25,9.67-2.47-7.75,4.77-16.32,13.89-17.71a23.51,23.51,0,0,1,22.86,10.66c3.28,5.47,4.43,12.54,10.52,15.71,4.67,2.44,11.54,2.05,14.42,6.07a10.86,10.86,0,0,1,1.55,4.39q4.08,21.3,8.18,42.6c2.6-1,3.77-3.61,4.69-6,6.08-15.45,12.23-31.78,8.62-47.81-3.66-16.26-17-29.72-32.12-39.79-10.17-6.76-22-12.52-34.75-12.89-20.79-.61-39.11,13.55-47.43,30.12-6,11.91-7.85,24.95-8.57,37.82-.22,3.89-2.88,14.57,2.67,14.32C260.77,331.55,264,323.36,265.11,320.38Z"/><path class="cls-13" d="M243.71,295.54a15.42,15.42,0,0,0,1-5.37,40.89,40.89,0,0,0-.92-4.2c-1-5.57,3.51-11.47,9.42-12.31-4.57-6.81-1-16,4.67-22,11.48-12.09,29.67-16.23,43.19-26.26,4.83-3.57,9.65-8.13,15.8-8.23,12.89-.2,17.79,18.18,30.36,21,5.29,1.17,10.88-.76,16.22.17a22.6,22.6,0,0,1,9.31,4.39c6.64,4.88,12,12.52,10.62,20.33,12.63-.94,23.9,9.09,27.9,20.46s2.41,23.72.55,35.55c6.79,2.33,11.78,8.76,12.08,15.56-4.05-5.43-11.15-8.38-18.17-8.72s-13.95,1.7-20.23,4.63c-7.45,3.47-14.54,8.63-17.43,16,.35-15.69-1.81-31.7-8.72-46s-19-26.81-34.48-32.59-34.44-4-47,6.28c-10.19,8.33-15.27,21.11-16.8,33.77-.62,5.08-3.51,32.48-15,23.6C237.9,325.16,241.35,303.59,243.71,295.54Z"/><path class="cls-13" d="M263.63,302.88c1.54-10.49,5.38-22.42,16.65-26.71-.62,5.88,3.57,11.89,9.89,14.22-3.88-5-1.78-12.25,3.43-16.27s12.7-5.23,19.68-4.75c5.73.4,11.54,1.93,15.8,5.24,9.3,7.22,9.25,21,19.64,27.05,3.13,1.82,6.94,2.71,9.91,4.73,6.46,4.37,7.09,12.42,7.18,19.48l.33,24.4c7.41-8,16.21-15.71,27.52-19s25.6-.85,31.88,7.85c3.22-5-.21-11.34-5.06-15.22s-11.05-6.43-15.5-10.65c-7.36-7-8.61-17-11.71-26a66.45,66.45,0,0,0-13.55-22.8,48.89,48.89,0,0,0-16.93-12.65c-6.89-2.95-14.69-3.94-22.37-4.33a155.75,155.75,0,0,0-57.19,7.8c-5.39,1.81-10.79,4-14.68,7.69-2.9,2.73-4.78,6.12-6.63,9.46-6.07,10.94-12.18,22-15,33.87-1.07,4.44-3.17,27.86,6.43,24.37C261.9,327.53,262.7,309.22,263.63,302.88Z"/><path class="cls-14" d="M329.09,273.5A39.09,39.09,0,0,0,339.93,301a42.39,42.39,0,0,0,29.72,12.62"/><path class="cls-14" d="M244.44,289.12a35.29,35.29,0,0,0-1.27,35.6"/><path class="cls-14" d="M253.14,274c-5.56-4.36-5.74-12.25-2.31-18s9.66-9.88,15.88-13.5c12.86-7.49,26.74-13.87,41.66-17.47"/><path class="cls-14" d="M324.64,221.31A42.57,42.57,0,0,0,344.13,235c3.9,1.37,8.05,2.25,11.74,4s7,4.64,7.61,8.26"/><path class="cls-14" d="M382.25,261.73c5.8-1.2,12,.62,16.82,3.63,9.38,5.83,14.57,15.78,15.87,25.74s-.87,20-3.75,29.73"/><ellipse class="cls-15" cx="261.41" cy="372.1" rx="8.8" ry="6.41"/><ellipse class="cls-15" cx="329.21" cy="371.89" rx="9.62" ry="6.21"/><path class="cls-16" d="M283.84,457.23c-5.56.16-12.9,2-13,7.58a10.45,10.45,0,0,0,1.74,5.08c6.09,10.9,13.92,20.71,21.72,30.47,8.12,10.16,17.58,21.1,30.49,22.65,5.71.69,11.49-.6,16.89-2.55a71.66,71.66,0,0,0,34.61-26.7c4.86-7.09,8.4-15,11.9-22.84,1.56-3.49,3.16-7.26,2.43-11s-4.89-7-8.34-5.39"/><path class="cls-17" d="M292.37,447.73c22.15.86,44.52,3.72,66.37-.07,4.71-.82,9.53-2,13.3-5,3.09-2.42,6.11-6.19,10-5.42,3.29,6.33,6.58,14.07,3,20.25A18.12,18.12,0,0,1,381,462c-10.49,9-24,13.94-37.74,15.5s-27.63-.17-41-3.4c-5.67-1.37-11.47-3.11-15.87-6.94C276.85,459,279.45,447.23,292.37,447.73Z"/><path class="cls-5" d="M330.49,502.64c2-1.41,4.3-2.65,6.74-2.53a11.67,11.67,0,0,1,4.27,1.29c7.14,3.37,13.69,8.8,16.45,16.2s.76,16.84-5.9,21.08c-2.85,1.82-6.26,2.56-9.6,3.07a82.58,82.58,0,0,1-14.13.93,28.36,28.36,0,0,1-10.94-1.91c-3.41-1.5-6.41-4.32-7.31-7.94C307.58,522.84,323.14,507.81,330.49,502.64Z"/><path class="cls-18" d="M334.87,498.3A1166.19,1166.19,0,0,0,334,628.51"/><circle class="cls-19" cx="333.73" cy="543.41" r="4.98"/><circle class="cls-19" cx="333.73" cy="595.6" r="4.98"/><circle class="cls-19" cx="334.48" cy="496.81" r="4.98"/><circle class="cls-20" cx="333.39" cy="542.7" r="4.98"/><circle class="cls-20" cx="333.39" cy="594.87" r="4.98"/><path class="cls-21" d="M333.79,495.88a5,5,0,0,1,1.41,1.89c.47,1.47-.69,2.93-1.78,4.15l-21.15,23.39a237.27,237.27,0,0,1-49.88-52.38,4.78,4.78,0,0,1-1.1-2.56,4.54,4.54,0,0,1,.78-2.12,44.67,44.67,0,0,1,14.49-14.8c9.09-5.85,11.45-2.09,18.13,4.41Z"/><path class="cls-21" d="M335,495.28a5,5,0,0,0-1.46,1.89c-.48,1.47.71,2.93,1.84,4.14l21.76,23.4a240.3,240.3,0,0,0,51.32-52.39,4.62,4.62,0,0,0,1.13-2.55,4.31,4.31,0,0,0-.79-2.12,45.46,45.46,0,0,0-14.91-14.8c-9.36-5.85-11.79-2.09-18.67,4.41Z"/><circle class="cls-20" cx="333.73" cy="495.97" r="4.98"/><path class="cls-22" d="M462.62,541.82l2.11,78.49"/><path class="cls-22" d="M226.3,553.08q-2.1,33.64-1.61,67.39"/></g><path class="cls-23" d="M317.91,225.73a25.27,25.27,0,0,0,29.85,21.19"/><path class="cls-23" d="M315.45,225.25c-1.91,5.31,0,11.3,3,16.06a37.38,37.38,0,0,0,35,16.78"/><path class="cls-23" d="M310.23,225c-2.36,5.34-.88,11.51.85,17.08a33,33,0,0,0,3.23,7.75c2.16,3.44,5.44,6,8.76,8.36,8.75,6.14,18.92,11.23,29.59,10.67"/><path class="cls-23" d="M305,228.14c-.73,14.24-3.12,29.53-13.11,39.71"/><path class="cls-23" d="M298.28,232.48a56.75,56.75,0,0,1-19,33.08"/><path class="cls-23" d="M290.43,236.78a48.11,48.11,0,0,1-24.92,26.88"/><path class="cls-23" d="M255.62,280.09c-3.35,2.79-4.39,7.42-5.06,11.73a152.43,152.43,0,0,0-1.72,27"/><path class="cls-23" d="M261.27,282.48a86.75,86.75,0,0,0-5.15,35.62"/><path class="cls-23" d="M344.46,276.3a23.81,23.81,0,0,0,11.48,15.75"/><path class="cls-23" d="M359.28,243.56c3.58-1.72,8.05-.1,10.8,2.78s4.16,6.73,5.49,10.47l2.95,8.22"/><path class="cls-23" d="M360.83,250.92a26.8,26.8,0,0,1,10,22.22"/><path class="cls-23" d="M360.66,262.13c4.09,7.69,4.25,17.68,5.71,26.27a18.47,18.47,0,0,1-10.27-12.7"/><path class="cls-23" d="M365.26,298.65c4.78,4.17,7.4,10.37,8.44,16.63s.63,12.64.21,19"/><path class="cls-23" d="M385.45,271.45c2.56-1.29,5.78-.49,8,1.26a20.33,20.33,0,0,1,5.11,6.82,120.73,120.73,0,0,1,11.74,32.35"/><path class="cls-23" d="M382.14,278.64c5.52,3.7,9.3,9.57,11.63,15.8s3.33,12.85,4.33,19.43"/><path class="cls-23" d="M376.91,290.88a35.1,35.1,0,0,1,7.27,33.38"/><path class="cls-23" d="M392.1,324.7a25.6,25.6,0,0,1,24.11,5"/></svg>




